<svg xmlns="http://www.w3.org/2000/svg" width="512" height="512" viewBox="0 0 512 512" version="1.1"><path d="M 93 110.870 L 93 126.740 87.250 127.880 C 69.412 131.419, 54.840 144.388, 49.379 161.585 C 47.509 167.473, 47 171.292, 47 179.433 C 47 205.843, 59.961 222.459, 85.412 228.678 L 92.325 230.368 89.162 231.865 C 87.423 232.689, 86 233.666, 86 234.036 C 86 234.406, 98.927 240.819, 114.727 248.287 L 143.454 261.865 151.174 257.849 C 162.250 252.086, 170.844 243.857, 175.387 234.663 L 179.049 227.251 183.275 228.798 C 186.932 230.137, 194.927 230.309, 242.720 230.079 L 297.941 229.814 298.220 243.157 L 298.500 256.500 306.767 259.753 C 334.279 270.579, 364.039 266.744, 380.536 250.247 C 385.997 244.786, 392.986 232.671, 393.015 228.616 C 393.048 224.119, 394.334 223.748, 400.013 226.600 C 403.125 228.164, 409.183 229.909, 414.526 230.782 C 422.746 232.126, 424.658 232.119, 432.971 230.717 C 453.336 227.284, 465.980 216.818, 472.785 197.764 C 475.034 191.467, 475.377 188.903, 475.366 178.500 C 475.352 165.576, 473.606 158.249, 468.402 149.283 C 457.338 130.221, 430.733 121.428, 406.837 128.934 L 400.175 131.026 387.837 129.013 C 359.392 124.372, 333.980 127.788, 318.452 138.339 L 314.836 140.796 308.415 135.936 C 295.734 126.337, 279.735 124.218, 253.500 128.663 C 248.550 129.502, 242.283 130.820, 239.574 131.592 C 234.925 132.918, 234.302 132.858, 228.491 130.533 C 216.489 125.732, 201.378 125.163, 187.968 129.009 C 181.733 130.797, 182 131.537, 182 112.500 L 182 95 137.500 95 L 93 95 93 110.870 M 110 126.856 L 110 142.779 99.250 143.213 C 90.424 143.569, 87.488 144.108, 82.849 146.225 C 75.695 149.488, 69.541 155.615, 66.148 162.852 C 63.762 167.940, 63.501 169.640, 63.509 180 C 63.517 189.992, 63.813 192.054, 65.765 195.722 C 70.826 205.230, 78.021 210.589, 88.799 212.876 C 95.594 214.317, 114.336 214.217, 124 212.687 L 131.500 211.500 131.500 161.500 L 131.500 111.500 120.750 111.216 L 110 110.932 110 126.856 M 144 122.500 L 144 134 155 134 L 166 134 166 122.500 L 166 111 155 111 L 144 111 144 122.500 M 192.500 144.506 C 189.750 145.262, 185.700 146.514, 183.500 147.288 L 179.500 148.696 179.209 157.471 C 178.941 165.574, 179.055 166.188, 180.709 165.495 C 189.669 161.740, 193.566 160.712, 200.550 160.262 C 209.703 159.672, 212 160.844, 212 166.103 C 212 169.423, 212.175 169.337, 202.335 170.858 C 192.984 172.302, 184.676 175.467, 180.415 179.209 C 171.356 187.163, 172.938 205.935, 183.110 211.187 C 189.849 214.666, 198.110 215.425, 214.412 214.061 C 222.614 213.374, 229.926 212.582, 230.662 212.299 C 232.400 211.633, 232.593 161.676, 230.882 155.512 C 229.516 150.592, 224.592 145.794, 219.276 144.201 C 213.968 142.611, 198.766 142.784, 192.500 144.506 M 256.500 144.497 C 252.650 145.269, 247.813 146.392, 245.750 146.991 L 242 148.080 242 180.540 L 242 213 253 213 L 264 213 264 187.607 C 264 158.713, 263.191 161, 273.407 161 C 278.825 161, 279.972 161.341, 282.076 163.579 C 284.477 166.133, 284.503 166.379, 284.831 189.579 L 285.161 213 295.639 213 L 306.116 213 305.808 185.174 L 305.500 157.349 302.801 153.273 C 300.942 150.465, 298.297 148.311, 294.301 146.348 C 288.965 143.728, 287.498 143.484, 276 143.296 C 268.421 143.173, 260.744 143.645, 256.500 144.497 M 345.500 144.473 C 323.179 149.362, 311.711 163.564, 313.295 184.354 C 314.122 195.217, 315.506 198.569, 321.830 205.036 C 326.464 209.774, 328.582 211.145, 333.421 212.537 C 339.260 214.218, 350.122 214.178, 355.750 212.455 C 357.723 211.852, 357.997 212.120, 357.978 214.633 C 357.943 219.197, 354.434 225.766, 350.874 227.930 C 344.206 231.986, 327.792 231.485, 318.914 226.956 L 315 224.959 315 235.433 L 315 245.906 318.750 246.978 C 326.553 249.208, 337.998 250.107, 345.333 249.066 C 355.425 247.633, 358.766 246.494, 364.540 242.517 C 370.490 238.419, 373.182 235.024, 376.216 227.794 C 378.317 222.787, 378.457 220.831, 378.796 191.661 L 379.154 160.822 381.444 161.396 C 383.495 161.911, 384.097 161.165, 387.222 154.236 C 391.281 145.235, 391.676 145.757, 379.519 144.066 C 369.332 142.649, 352.932 142.845, 345.500 144.473 M 410.500 144.730 C 395.821 150.702, 388.800 161.929, 388.756 179.500 C 388.726 191.498, 391.327 198.545, 398.391 205.609 C 405.225 212.443, 412.078 215, 423.562 215 C 433.740 215, 441.244 212.680, 447.412 207.626 C 456.217 200.410, 461.156 184.997, 458.996 171.475 C 456.981 158.864, 452.003 151.641, 441.811 146.542 C 435.069 143.169, 434.249 143.002, 424.616 143.052 C 417.681 143.087, 413.242 143.615, 410.500 144.730 M 143.980 172.750 C 143.969 188.563, 143.512 204.605, 142.963 208.401 C 141.488 218.605, 137.874 224.617, 130.278 229.500 C 126.856 231.700, 124.043 233.737, 124.028 234.027 C 123.977 234.989, 140.992 243, 143.085 243 C 145.461 243, 152.287 238.491, 156.178 234.350 C 160.519 229.731, 163.759 222.069, 164.919 213.678 C 165.513 209.375, 166 191.938, 166 174.928 L 166 144 155 144 L 144 144 143.980 172.750 M 419 161.716 C 411.597 165.489, 408.482 179.856, 412.938 189.672 C 417.376 199.447, 428.760 200.401, 434.600 191.488 C 436.742 188.219, 437.628 176.004, 436.127 170.452 C 433.922 162.301, 425.891 158.205, 419 161.716 M 94.445 161.938 C 90.162 163.717, 86.192 169.618, 85.488 175.251 C 83.732 189.302, 92.478 198.505, 105.702 196.522 L 110.047 195.870 109.773 178.685 L 109.500 161.500 103 161.292 C 99.425 161.178, 95.575 161.468, 94.445 161.938 M 345.500 162.569 C 337.196 166.880, 333.737 174.779, 335.908 184.477 C 337.501 191.598, 341.249 195.125, 347.899 195.764 C 350.645 196.028, 354.041 195.956, 355.446 195.603 L 358 194.962 358 177.981 L 358 161 353.250 161.006 C 350.637 161.010, 347.150 161.713, 345.500 162.569 M 203.787 185.396 C 197.108 186.831, 194 189.246, 194 193 C 194 197.684, 196.780 199.132, 205.130 198.796 L 212.500 198.500 212.794 191.250 C 213.128 182.998, 213.579 183.291, 203.787 185.396 M 0.001 341.254 L 0.002 364.500 2.845 370.500 C 6.067 377.302, 12.022 383.193, 18.878 386.363 C 23.481 388.491, 23.892 388.501, 117.250 388.779 C 168.813 388.933, 211 389.275, 211 389.540 C 211 389.804, 207.119 405.541, 202.375 424.510 L 193.751 459 186.625 459.015 C 178.993 459.031, 173.882 460.281, 167.500 463.693 C 158.184 468.672, 150 481.746, 150 491.649 L 150 495 256 495 L 362 495 362 491.649 C 362 481.746, 353.816 468.672, 344.500 463.693 C 338.118 460.281, 333.007 459.031, 325.375 459.015 L 318.249 459 309.625 424.510 C 304.881 405.541, 301 389.804, 301 389.540 C 301 389.275, 343.187 388.933, 394.750 388.779 C 488.108 388.501, 488.519 388.491, 493.122 386.363 C 500.225 383.078, 505.844 377.373, 509.624 369.606 L 513 362.669 513 340.085 L 513 317.500 256.500 317.754 L -0 318.008 0.001 341.254 M 0.431 341.500 C 0.432 354.700, 0.574 359.962, 0.747 353.193 C 0.921 346.424, 0.920 335.624, 0.746 329.193 C 0.572 322.762, 0.431 328.300, 0.431 341.500" stroke="none" fill="#ebebeb" fill-rule="evenodd"/><path d="M 23.500 18.399 C 20.750 19.075, 17.448 20.199, 16.162 20.897 C 11.182 23.597, 5.567 29.755, 2.845 35.500 L 0.002 41.500 0.001 179.752 L 0 318.004 256.250 317.752 L 512.500 317.500 512.754 178.580 C 512.893 102.174, 512.720 39.947, 512.369 40.298 C 512.017 40.649, 510.511 38.363, 509.021 35.218 C 506.295 29.464, 500.519 23.338, 495.310 20.678 C 493.764 19.889, 490.115 18.739, 487.201 18.122 C 479.222 16.433, 30.406 16.702, 23.500 18.399 M 0.486 179.500 C 0.486 255.950, 0.605 287.077, 0.750 248.672 C 0.895 210.266, 0.895 147.716, 0.750 109.672 C 0.605 71.627, 0.486 103.050, 0.486 179.500 M 93 110.870 L 93 126.740 87.250 127.880 C 69.412 131.419, 54.840 144.388, 49.379 161.585 C 47.509 167.473, 47 171.292, 47 179.433 C 47 205.843, 59.961 222.459, 85.412 228.678 L 92.325 230.368 89.162 231.865 C 87.423 232.689, 86 233.666, 86 234.036 C 86 234.406, 98.927 240.819, 114.727 248.287 L 143.454 261.865 151.174 257.849 C 162.250 252.086, 170.844 243.857, 175.387 234.663 L 179.049 227.251 183.275 228.798 C 186.932 230.137, 194.927 230.309, 242.720 230.079 L 297.941 229.814 298.220 243.157 L 298.500 256.500 306.767 259.753 C 334.279 270.579, 364.039 266.744, 380.536 250.247 C 385.997 244.786, 392.986 232.671, 393.015 228.616 C 393.048 224.119, 394.334 223.748, 400.013 226.600 C 403.125 228.164, 409.183 229.909, 414.526 230.782 C 422.746 232.126, 424.658 232.119, 432.971 230.717 C 453.336 227.284, 465.980 216.818, 472.785 197.764 C 475.034 191.467, 475.377 188.903, 475.366 178.500 C 475.352 165.576, 473.606 158.249, 468.402 149.283 C 457.338 130.221, 430.733 121.428, 406.837 128.934 L 400.175 131.026 387.837 129.013 C 359.392 124.372, 333.980 127.788, 318.452 138.339 L 314.836 140.796 308.415 135.936 C 295.734 126.337, 279.735 124.218, 253.500 128.663 C 248.550 129.502, 242.283 130.820, 239.574 131.592 C 234.925 132.918, 234.302 132.858, 228.491 130.533 C 216.489 125.732, 201.378 125.163, 187.968 129.009 C 181.733 130.797, 182 131.537, 182 112.500 L 182 95 137.500 95 L 93 95 93 110.870 M 110 126.856 L 110 142.779 99.250 143.213 C 90.424 143.569, 87.488 144.108, 82.849 146.225 C 75.695 149.488, 69.541 155.615, 66.148 162.852 C 63.762 167.940, 63.501 169.640, 63.509 180 C 63.517 189.992, 63.813 192.054, 65.765 195.722 C 70.826 205.230, 78.021 210.589, 88.799 212.876 C 95.594 214.317, 114.336 214.217, 124 212.687 L 131.500 211.500 131.500 161.500 L 131.500 111.500 120.750 111.216 L 110 110.932 110 126.856 M 144 122.500 L 144 134 155 134 L 166 134 166 122.500 L 166 111 155 111 L 144 111 144 122.500 M 192.500 144.506 C 189.750 145.262, 185.700 146.514, 183.500 147.288 L 179.500 148.696 179.209 157.471 C 178.941 165.574, 179.055 166.188, 180.709 165.495 C 189.669 161.740, 193.566 160.712, 200.550 160.262 C 209.703 159.672, 212 160.844, 212 166.103 C 212 169.423, 212.175 169.337, 202.335 170.858 C 192.984 172.302, 184.676 175.467, 180.415 179.209 C 171.356 187.163, 172.938 205.935, 183.110 211.187 C 189.849 214.666, 198.110 215.425, 214.412 214.061 C 222.614 213.374, 229.926 212.582, 230.662 212.299 C 232.400 211.633, 232.593 161.676, 230.882 155.512 C 229.516 150.592, 224.592 145.794, 219.276 144.201 C 213.968 142.611, 198.766 142.784, 192.500 144.506 M 256.500 144.497 C 252.650 145.269, 247.813 146.392, 245.750 146.991 L 242 148.080 242 180.540 L 242 213 253 213 L 264 213 264 187.607 C 264 158.713, 263.191 161, 273.407 161 C 278.825 161, 279.972 161.341, 282.076 163.579 C 284.477 166.133, 284.503 166.379, 284.831 189.579 L 285.161 213 295.639 213 L 306.116 213 305.808 185.174 L 305.500 157.349 302.801 153.273 C 300.942 150.465, 298.297 148.311, 294.301 146.348 C 288.965 143.728, 287.498 143.484, 276 143.296 C 268.421 143.173, 260.744 143.645, 256.500 144.497 M 345.500 144.473 C 323.179 149.362, 311.711 163.564, 313.295 184.354 C 314.122 195.217, 315.506 198.569, 321.830 205.036 C 326.464 209.774, 328.582 211.145, 333.421 212.537 C 339.260 214.218, 350.122 214.178, 355.750 212.455 C 357.723 211.852, 357.997 212.120, 357.978 214.633 C 357.943 219.197, 354.434 225.766, 350.874 227.930 C 344.206 231.986, 327.792 231.485, 318.914 226.956 L 315 224.959 315 235.433 L 315 245.906 318.750 246.978 C 326.553 249.208, 337.998 250.107, 345.333 249.066 C 355.425 247.633, 358.766 246.494, 364.540 242.517 C 370.490 238.419, 373.182 235.024, 376.216 227.794 C 378.317 222.787, 378.457 220.831, 378.796 191.661 L 379.154 160.822 381.444 161.396 C 383.495 161.911, 384.097 161.165, 387.222 154.236 C 391.281 145.235, 391.676 145.757, 379.519 144.066 C 369.332 142.649, 352.932 142.845, 345.500 144.473 M 410.500 144.730 C 395.821 150.702, 388.800 161.929, 388.756 179.500 C 388.726 191.498, 391.327 198.545, 398.391 205.609 C 405.225 212.443, 412.078 215, 423.562 215 C 433.740 215, 441.244 212.680, 447.412 207.626 C 456.217 200.410, 461.156 184.997, 458.996 171.475 C 456.981 158.864, 452.003 151.641, 441.811 146.542 C 435.069 143.169, 434.249 143.002, 424.616 143.052 C 417.681 143.087, 413.242 143.615, 410.500 144.730 M 143.980 172.750 C 143.969 188.563, 143.512 204.605, 142.963 208.401 C 141.488 218.605, 137.874 224.617, 130.278 229.500 C 126.856 231.700, 124.043 233.737, 124.028 234.027 C 123.977 234.989, 140.992 243, 143.085 243 C 145.461 243, 152.287 238.491, 156.178 234.350 C 160.519 229.731, 163.759 222.069, 164.919 213.678 C 165.513 209.375, 166 191.938, 166 174.928 L 166 144 155 144 L 144 144 143.980 172.750 M 419 161.716 C 411.597 165.489, 408.482 179.856, 412.938 189.672 C 417.376 199.447, 428.760 200.401, 434.600 191.488 C 436.742 188.219, 437.628 176.004, 436.127 170.452 C 433.922 162.301, 425.891 158.205, 419 161.716 M 94.445 161.938 C 90.162 163.717, 86.192 169.618, 85.488 175.251 C 83.732 189.302, 92.478 198.505, 105.702 196.522 L 110.047 195.870 109.773 178.685 L 109.500 161.500 103 161.292 C 99.425 161.178, 95.575 161.468, 94.445 161.938 M 345.500 162.569 C 337.196 166.880, 333.737 174.779, 335.908 184.477 C 337.501 191.598, 341.249 195.125, 347.899 195.764 C 350.645 196.028, 354.041 195.956, 355.446 195.603 L 358 194.962 358 177.981 L 358 161 353.250 161.006 C 350.637 161.010, 347.150 161.713, 345.500 162.569 M 203.787 185.396 C 197.108 186.831, 194 189.246, 194 193 C 194 197.684, 196.780 199.132, 205.130 198.796 L 212.500 198.500 212.794 191.250 C 213.128 182.998, 213.579 183.291, 203.787 185.396" stroke="none" fill="#344045" fill-rule="evenodd"/></svg>