<svg xmlns="http://www.w3.org/2000/svg" width="512" height="512" viewBox="0 0 512 512" version="1.1"><path d="M 225 243.554 C 215.925 248.863, 208 253.835, 207.389 254.604 L 206.279 256.001 206.765 265.751 L 207.251 275.500 208.158 276.642 C 208.657 277.270, 216.601 282.108, 225.812 287.392 L 242.558 297 246.521 297 L 250.484 297 266.492 287.842 C 275.296 282.805, 283.288 278.010, 284.250 277.187 L 286 275.690 286 265.359 L 286 255.028 282.250 252.612 C 280.188 251.283, 272.425 246.698, 265 242.422 L 251.500 234.649 246.500 234.275 L 241.500 233.902 225 243.554 M 107.998 311.557 C 98.924 316.814, 91.064 321.547, 90.532 322.076 L 89.563 323.037 89.839 333.268 L 90.114 343.500 91.307 344.670 C 91.963 345.314, 99.700 350.027, 108.500 355.144 L 124.500 364.447 129.500 364.474 L 134.500 364.500 149 356.072 C 156.975 351.437, 164.752 346.783, 166.283 345.730 L 169.066 343.817 168.783 333.233 L 168.500 322.649 157 315.757 C 150.675 311.967, 142.757 307.321, 139.404 305.433 L 133.308 302 128.902 302 L 124.495 302 107.998 311.557" stroke="none" fill="#96d696" fill-rule="evenodd"/><path d="M 183.811 11.415 C 181.232 12.156, 177.473 13.781, 175.458 15.026 L 171.794 17.290 169.901 20.395 L 168.007 23.500 168.004 26.102 L 168 28.704 170.278 32.084 L 172.555 35.463 178.171 38.335 L 183.786 41.207 194.143 41.444 L 204.500 41.681 209 40.253 C 211.475 39.468, 215.154 37.702, 217.176 36.328 L 220.853 33.830 222.491 30.377 L 224.130 26.924 223.042 23.627 L 221.954 20.330 219.227 17.719 L 216.500 15.107 211.500 12.865 L 206.500 10.623 197.500 10.345 L 188.500 10.067 183.811 11.415 M 303.734 12.033 C 301.663 12.551, 298.233 13.861, 296.110 14.944 L 292.252 16.912 289.626 20.033 L 287 23.153 287 27.042 L 287 30.930 289.993 34.339 L 292.985 37.747 298.243 40.013 L 303.500 42.279 314.500 42.279 L 325.500 42.279 330.757 40.013 L 336.015 37.747 339.007 34.339 L 342 30.930 342 27 L 342 23.070 339.007 19.661 L 336.015 16.253 330.757 13.948 L 325.500 11.643 316.500 11.367 L 307.500 11.091 303.734 12.033 M 191.146 24.324 L 189.965 25.747 190.550 27.270 L 191.134 28.793 193.767 29.296 L 196.399 29.799 198.769 28.898 L 201.139 27.997 200.819 25.748 L 200.500 23.500 196.414 23.200 L 192.327 22.901 191.146 24.324 M 312 23.974 L 309.500 24.590 309.500 27.045 L 309.500 29.500 314.500 29.500 L 319.500 29.500 319.500 27.072 L 319.500 24.644 317 24.001 L 314.500 23.359 312 23.974 M 185.384 79.429 L 180.267 80.653 175.830 83.253 L 171.394 85.854 169.556 89.267 L 167.717 92.680 168.395 96.293 L 169.073 99.907 173.153 103.399 L 177.233 106.891 181.795 108.446 L 186.356 110 192.928 109.984 L 199.500 109.969 205.147 108.640 L 210.795 107.310 215.392 104.616 L 219.989 101.922 221.494 99.011 L 223 96.099 223 92.895 L 223 89.690 219.088 85.969 L 215.177 82.248 210.338 80.525 L 205.500 78.803 198 78.504 L 190.500 78.204 185.384 79.429 M 303.500 81.660 L 298.500 83.181 295 85.800 C 293.075 87.240, 290.952 89.112, 290.282 89.959 L 289.064 91.500 289.032 94.703 L 289 97.906 290.143 100.415 L 291.286 102.924 294.976 105.365 C 297.005 106.708, 300.725 108.506, 303.243 109.361 L 307.820 110.915 317.660 111.126 L 327.500 111.337 332.773 109.035 L 338.046 106.734 340.523 103.790 C 341.886 102.171, 343.274 99.756, 343.609 98.423 L 344.217 96 343.546 93.328 L 342.875 90.656 339.209 87.297 L 335.543 83.939 329.166 81.970 L 322.789 80 315.645 80.070 L 308.500 80.139 303.500 81.660 M 191.529 92.355 L 189.675 93.711 190.295 95.326 L 190.914 96.940 193.457 97.579 L 196 98.217 198.500 97.589 L 201 96.962 201 94.588 L 201 92.214 199.418 91.607 C 198.548 91.273, 196.834 91, 195.609 91 L 193.382 91 191.529 92.355 M 311.667 93.667 C 311.300 94.033, 311 95.169, 311 96.191 L 311 98.050 313.301 98.924 L 315.601 99.799 318.233 99.296 L 320.866 98.793 321.450 97.270 L 322.035 95.747 320.895 94.373 L 319.755 93 316.044 93 C 314.003 93, 312.033 93.300, 311.667 93.667 M 313.500 198.713 C 312.400 198.978, 311.192 199.488, 310.816 199.847 L 310.132 200.500 325.765 209.500 C 334.363 214.450, 342.208 219.287, 343.199 220.250 L 345 222 345.037 224.250 L 345.074 226.500 415.486 267 L 485.898 307.500 484.202 308.791 C 483.269 309.501, 423.227 344.529, 350.774 386.631 L 219.042 463.181 218.164 462.840 C 215.421 461.777, 44.028 362.389, 44.015 361.854 C 44.007 361.499, 53.946 355.453, 66.103 348.418 L 88.206 335.628 88.677 334.398 C 88.937 333.722, 89.003 331.999, 88.825 330.569 L 88.500 327.969 53 348.553 L 17.500 369.136 13.750 373.029 L 10 376.923 10 379.560 L 10 382.198 11.574 385.514 L 13.147 388.830 16.824 391.331 C 21.313 394.385, 161.633 475.488, 168.152 478.797 L 172.804 481.158 179.982 482.269 L 187.159 483.380 194.130 482.184 L 201.101 480.989 205.301 478.853 C 210.892 476.010, 492.757 312.244, 496.127 309.881 L 498.753 308.039 500.377 304.619 L 502 301.198 502 298.560 L 502 295.923 498.250 292.051 L 494.500 288.179 418.591 244.444 L 342.682 200.708 338.182 199.354 L 333.682 198 324.591 198.116 C 319.591 198.180, 314.600 198.448, 313.500 198.713 M 257.271 229.792 C 250.082 234.071, 249.953 234.324, 254.076 236.032 L 257.153 237.306 260.826 235.214 L 264.500 233.122 264.810 229.561 L 265.121 226 264.310 226.042 C 263.865 226.066, 260.697 227.753, 257.271 229.792 M 373.323 231.601 L 372.709 233.202 374.104 234.086 C 374.872 234.572, 375.950 234.969, 376.500 234.969 C 377.050 234.969, 378.128 234.572, 378.896 234.086 L 380.291 233.202 379.677 231.601 L 379.063 230 376.500 230 L 373.937 230 373.323 231.601 M 387.750 237.758 L 386 238.147 386 239.446 L 386 240.745 406.239 252.416 L 426.478 264.087 428.912 263.793 L 431.346 263.500 431.720 262.360 L 432.094 261.219 412.297 249.804 C 390.814 237.417, 390.337 237.183, 387.750 237.758 M 169.761 280.740 C 130.520 303.535, 132.743 301.955, 137.147 303.905 L 140.294 305.298 141.897 304.335 C 142.779 303.806, 157 295.572, 173.500 286.038 C 190 276.504, 204.096 268.159, 204.824 267.492 L 206.148 266.281 205.824 263.131 L 205.500 259.981 169.761 280.740 M 283.250 284.038 L 266 294.168 266 296.482 L 266 298.795 282.750 308.605 L 299.500 318.414 305 318.419 L 310.500 318.424 325 309.884 C 332.975 305.187, 340.529 300.704, 341.786 299.922 L 344.073 298.500 343.786 296.166 L 343.500 293.833 327 284.263 L 310.500 274.693 305.500 274.300 L 300.500 273.907 283.250 284.038 M 182.500 287.005 C 181.400 287.489, 173.786 291.848, 165.580 296.692 L 150.660 305.500 149.638 307.166 L 148.616 308.832 149.816 310.279 C 150.476 311.074, 158.284 315.900, 167.167 321.003 L 183.317 330.281 187.408 330.704 L 191.500 331.127 199 326.734 C 203.125 324.318, 210.761 319.847, 215.968 316.799 L 225.436 311.256 226.454 309.642 L 227.472 308.028 225.486 306.092 C 224.394 305.027, 216.338 300.071, 207.585 295.078 L 191.669 286 188.085 286.063 C 186.113 286.098, 183.600 286.522, 182.500 287.005 M 102.500 415.665 C 100.850 416.537, 98.713 417.939, 97.750 418.780 L 96 420.310 96 423.203 L 96 426.095 98.647 428.549 L 101.294 431.002 105.397 432.111 L 109.500 433.220 114.791 432.678 L 120.082 432.136 123.291 430.268 L 126.500 428.399 127.860 425.585 L 129.219 422.770 127.288 420.135 L 125.358 417.500 121.929 415.752 L 118.500 414.003 112 414.042 L 105.500 414.080 102.500 415.665 M 105.345 418.395 L 102.191 419.823 101.505 421.983 L 100.820 424.143 102.569 426.076 L 104.318 428.008 108.159 429.043 L 112 430.077 115.955 429.012 L 119.910 427.947 121.455 426.402 L 123 424.857 123 422.952 L 123 421.046 120.443 419.371 L 117.886 417.695 113.193 417.332 L 108.500 416.968 105.345 418.395" stroke="none" fill="#e3e7f0" fill-rule="evenodd"/><path d="M 190.370 44.250 C 190.701 45.487, 190.979 47.504, 190.986 48.731 L 191 50.962 193.574 51.608 L 196.147 52.254 198.574 51.148 L 201 50.043 201 46.021 L 201 42 195.383 42 L 189.767 42 190.370 44.250 M 309.015 46.250 C 309.024 48.038, 309.443 50.153, 309.948 50.950 L 310.865 52.400 314.500 52.400 L 318.135 52.400 319.052 50.950 C 319.557 50.153, 319.976 48.038, 319.985 46.250 L 320 43 314.500 43 L 309 43 309.015 46.250 M 190.441 114.357 L 191.094 118.440 192.297 119.205 C 192.959 119.625, 194.648 119.976, 196.050 119.985 L 198.600 120 199.800 118.800 L 201 117.600 201 114.018 L 201 110.436 195.394 110.355 L 189.788 110.274 190.441 114.357 M 309.756 111.752 L 311 112.167 311 116.105 L 311 120.043 313.500 121.182 L 316 122.321 318.355 121.248 L 320.710 120.175 321.324 116.390 C 322.068 111.806, 322.786 112.329, 315.006 111.788 C 311.434 111.540, 309.071 111.524, 309.756 111.752 M 55.948 179.915 C 52.954 180.861, 24.311 197.477, 21.750 199.754 L 20 201.310 20 211.533 L 20 221.755 21.477 222.981 C 22.290 223.655, 30.052 228.265, 38.727 233.225 L 54.500 242.243 59.268 242.750 L 64.037 243.258 80.268 233.971 C 89.196 228.863, 97.287 224.010, 98.250 223.187 L 100 221.690 99.985 211.595 L 99.969 201.500 99.235 200.351 C 98.831 199.719, 91.075 194.915, 82 189.676 L 65.500 180.150 62 179.630 L 58.500 179.109 55.948 179.915 M 431 191.309 L 422.500 196.500 422.500 208 L 422.500 219.500 440.500 229.827 L 458.500 240.153 463 239.725 L 467.500 239.296 484.500 229.384 L 501.500 219.472 501.785 208.631 L 502.070 197.789 500.916 196.399 C 499.999 195.294, 487.154 187.628, 483.772 186.167 L 483 185.833 483 193.840 L 483 201.846 479.931 204.915 L 476.862 207.984 471.239 209.619 L 465.617 211.253 459.383 210.671 L 453.149 210.089 449.825 208.685 C 447.996 207.912, 445.262 206.031, 443.750 204.504 L 441 201.727 441 193.864 L 441 186 440.250 186.059 C 439.837 186.091, 435.675 188.454, 431 191.309 M 373.531 231.950 L 372.873 233.014 374.378 233.592 C 375.206 233.909, 376.608 234.019, 377.494 233.835 L 379.106 233.500 379.084 232.500 L 379.062 231.500 376.626 231.193 L 374.189 230.885 373.531 231.950 M 386.570 238.887 L 386.022 239.773 387.261 240.721 C 387.942 241.242, 397.374 246.747, 408.220 252.953 L 427.939 264.237 429.470 263.650 C 430.311 263.327, 431 262.655, 431 262.156 L 431 261.249 410.738 249.625 L 390.477 238 388.797 238 C 387.874 238, 386.871 238.399, 386.570 238.887 M 303.269 273.693 C 304.242 273.947, 305.592 273.930, 306.269 273.656 L 307.500 273.158 304.500 273.195 L 301.500 273.232 303.269 273.693 M 186.250 285.689 C 187.213 285.941, 188.787 285.941, 189.750 285.689 L 191.500 285.232 188 285.232 L 184.500 285.232 186.250 285.689 M 418.765 285.985 C 417.261 286.444, 408.819 291.019, 400.006 296.152 L 383.981 305.485 383.386 307.360 L 382.791 309.235 384.645 311.009 C 385.665 311.985, 393.250 316.724, 401.500 321.542 L 416.500 330.301 422 330.689 L 427.500 331.078 444.500 321.142 L 461.500 311.207 461.500 308.378 L 461.500 305.549 444.500 295.849 L 427.500 286.148 424.500 285.650 L 421.500 285.151 418.765 285.985 M 344.328 303.500 L 344.336 310.500 344.730 306.728 C 344.946 304.653, 344.943 301.503, 344.722 299.728 L 344.320 296.500 344.328 303.500 M 265.196 303.750 C 265.088 307.188, 264.807 310, 264.572 310 C 264.336 310, 261.311 308.313, 257.848 306.250 L 251.553 302.500 246.500 302.500 L 241.447 302.500 235.140 306.257 L 228.832 310.014 227.762 309.353 L 226.691 308.691 227.241 309.595 L 227.791 310.500 217.395 316.456 L 207 322.412 207 333.051 L 207 343.690 208.750 345.203 C 209.713 346.035, 217.701 350.830, 226.502 355.858 L 242.504 365 246.302 365 L 250.099 365 253.300 363.362 C 259.295 360.293, 282.494 346.659, 284.250 345.172 L 286 343.690 286 333.036 L 286 322.381 278.250 317.817 C 273.988 315.306, 269.508 312.740, 268.295 312.115 L 266.091 310.978 265.741 304.239 L 265.392 297.500 265.196 303.750 M 303.250 331.689 C 304.212 331.941, 305.788 331.941, 306.750 331.689 L 308.500 331.232 305 331.232 L 301.500 331.232 303.250 331.689 M 106.500 414.874 C 101.984 416.046, 99.180 417.795, 97.358 420.576 L 95.716 423.082 96.818 425.500 L 97.920 427.919 102.119 430.061 L 106.317 432.203 113.608 431.834 L 120.899 431.466 123.622 429.433 C 125.120 428.315, 126.784 426.704, 127.320 425.855 L 128.295 424.310 127.631 421.667 L 126.968 419.024 122.916 416.957 L 118.863 414.890 114.182 414.492 L 109.500 414.095 106.500 414.874 M 106.600 417.445 L 102.700 418.867 101.865 420.184 C 101.406 420.908, 101.024 422.519, 101.015 423.765 L 101 426.029 104.250 428.070 L 107.500 430.110 113.294 429.738 L 119.089 429.366 121.650 426.804 L 124.212 424.243 123.535 422.110 L 122.858 419.978 120.145 418.575 C 118.652 417.803, 115.871 416.913, 113.965 416.597 L 110.500 416.023 106.600 417.445" stroke="none" fill="#7bb1ff" fill-rule="evenodd"/><path d="M 293.785 161.918 C 292.841 162.788, 284.971 167.550, 276.295 172.500 L 260.521 181.500 256.010 181.500 L 251.500 181.500 234 171.405 L 216.500 161.311 216.207 169.334 L 215.913 177.358 217.707 179.033 C 218.693 179.954, 226.475 184.678, 235 189.530 L 250.500 198.351 255.500 198.735 L 260.500 199.119 277 189.508 C 286.075 184.222, 294.081 179.323, 294.791 178.621 L 296.083 177.346 295.791 168.841 L 295.500 160.336 293.785 161.918 M 298.500 201.153 C 289.737 205.937, 268.156 218.628, 266.750 219.823 L 265 221.310 265 230.964 L 265 240.618 266.250 242.276 L 267.500 243.934 283.955 253.467 L 300.410 263 304.966 263 L 309.522 263 326.511 253.202 L 343.500 243.405 344.133 233.452 L 344.766 223.500 343.455 221.394 L 342.143 219.289 325.303 209.644 L 308.463 200 304.481 200.030 L 300.500 200.061 298.500 201.153 M 21.200 226.200 L 20 227.400 20 237.545 L 20 247.690 21.750 249.187 C 22.712 250.010, 30.802 254.861, 39.726 259.968 L 55.952 269.252 61.226 268.764 L 66.500 268.276 82.500 258.945 C 91.300 253.813, 98.831 249.138, 99.235 248.557 L 99.969 247.500 99.985 237.832 C 99.993 232.514, 99.727 227.452, 99.393 226.582 L 98.786 225 97.258 225 C 96.418 225, 88.599 229.108, 79.883 234.129 L 64.037 243.258 59.268 242.758 L 54.500 242.258 39.500 233.633 C 23.680 224.537, 23.099 224.301, 21.200 226.200 M 20 265.294 L 20 273.898 23.250 276.326 C 25.038 277.661, 33.025 282.490, 41 287.058 L 55.500 295.363 60.065 295.374 L 64.630 295.385 80.922 286.014 C 89.883 280.860, 97.841 276.016, 98.607 275.250 L 100 273.857 100 265.274 L 100 256.690 98.250 258.231 C 97.287 259.078, 89.340 263.873, 80.588 268.886 L 64.677 278 60.135 278 L 55.594 278 39.547 268.837 C 30.721 263.798, 22.712 259.003, 21.750 258.182 L 20 256.690 20 265.294 M 324.030 338.816 L 324 342.131 324.953 343.912 L 325.906 345.692 342.948 355.470 L 359.991 365.248 365.245 364.765 L 370.500 364.283 385.500 355.517 C 393.750 350.696, 401.288 346.063, 402.250 345.221 L 404 343.690 404 340.294 L 404 336.898 400.750 339.287 C 398.962 340.601, 391.159 345.349, 383.408 349.838 L 369.316 358 364.437 358 L 359.558 358 342.748 348.355 L 325.937 338.710 324.999 337.105 L 324.061 335.500 324.030 338.816 M 301.044 354.108 C 299.693 354.647, 291.482 359.207, 282.799 364.241 L 267.010 373.393 266.400 375.314 L 265.791 377.235 267.645 379.019 C 268.665 380, 276.660 384.898, 285.412 389.902 L 301.323 399 305.912 398.986 L 310.500 398.972 327.500 389.106 L 344.500 379.241 344.500 376.419 L 344.500 373.597 334.500 367.663 C 329 364.400, 320.776 359.766, 316.226 357.365 L 307.951 353 305.726 353.063 C 304.501 353.098, 302.395 353.568, 301.044 354.108" stroke="none" fill="#fe91ab" fill-rule="evenodd"/><path d="M 192.250 23.662 L 191 24.167 191 25.976 L 191 27.786 192.582 28.393 C 193.452 28.727, 195.197 29, 196.459 29 L 198.755 29 200.090 27.392 L 201.425 25.784 199.521 24.392 L 197.618 23 195.559 23.079 C 194.426 23.122, 192.938 23.385, 192.250 23.662 M 310.441 25.500 L 308.500 27 310.441 28.500 L 312.382 30 314.620 30 L 316.857 30 318.539 28.318 L 320.222 26.635 318.420 25.318 L 316.618 24 314.500 24 L 312.382 24 310.441 25.500 M 319.985 46.715 C 319.967 50.020, 319.147 51.407, 316.671 52.322 L 314.841 52.998 312.371 52.378 L 309.902 51.759 309.326 48.879 C 308.617 45.334, 311.513 44.393, 288.588 55.621 L 268.944 65.242 255.222 65.209 L 241.500 65.175 221.776 55.587 C 199.573 44.795, 201 45.315, 201 48.021 L 201 50.043 198.574 51.148 L 196.147 52.254 193.574 51.608 L 191 50.962 191 47.981 L 191 45 189.622 45 C 188.865 45, 187.719 45.633, 187.077 46.408 L 185.909 47.815 186.204 55.092 L 186.500 62.370 204.741 74.935 L 222.983 87.500 222.991 93.173 L 223 98.846 219.761 102.085 L 216.522 105.324 212.511 107.083 C 210.305 108.050, 206.813 109.153, 204.750 109.532 L 201 110.223 201 113.911 L 201 117.600 199.800 118.800 L 198.600 120 196.382 120 C 195.162 120, 193.452 119.727, 192.582 119.393 L 191 118.786 191 116.893 L 191 115 190.200 115 C 189.760 115, 188.860 115.540, 188.200 116.200 L 187 117.400 187 125.078 L 187 132.755 188.654 134.128 L 190.307 135.500 194.404 135.478 L 198.500 135.456 219.161 125.337 L 239.823 115.217 229.411 136.274 C 223.685 147.855, 219 157.986, 219 158.788 L 219 160.245 220.340 159.133 C 221.077 158.521, 226.759 148.062, 232.965 135.891 L 244.250 113.762 248.796 114.386 C 251.296 114.728, 253.507 115.174, 253.709 115.376 C 253.911 115.578, 254.356 130.201, 254.698 147.871 L 255.320 180 256 180 L 256.680 180 257.302 147.871 C 257.644 130.201, 258.144 115.523, 258.412 115.254 C 258.681 114.985, 260.902 114.540, 263.347 114.264 L 267.794 113.763 277.883 133.632 C 283.433 144.559, 288.903 155.013, 290.040 156.863 L 292.108 160.226 292.688 159.645 L 293.269 159.064 292.025 155.782 C 291.341 153.977, 286.781 144.566, 281.891 134.869 C 277.001 125.172, 273 116.991, 273 116.688 C 273 116.386, 281.887 120.462, 292.750 125.747 L 312.500 135.356 316.838 135.428 L 321.177 135.500 323.088 133.139 L 325 130.778 325 124.544 L 325 118.310 323 116.500 L 321 114.690 321 117.366 L 321 120.043 318.500 121.182 L 316 122.321 313.500 121.182 L 311 120.043 311 116.040 L 311 112.038 308.250 111.450 C 306.738 111.126, 303.475 110.145, 301 109.269 L 296.500 107.677 292.750 103.956 L 289 100.235 288.989 97.368 C 288.983 95.790, 288.716 92.918, 288.396 90.985 L 287.815 87.471 303.657 76.578 C 312.371 70.588, 320.512 64.778, 321.750 63.669 L 324 61.651 324 53.861 L 324 46.070 322 45 L 320 43.930 319.985 46.715 M 193.148 92.141 L 190.852 92.990 191.186 94.745 L 191.520 96.500 193.862 96.833 C 195.150 97.016, 197.313 96.887, 198.668 96.547 L 201.133 95.929 200.816 94.286 L 200.500 92.644 197.972 91.968 L 195.444 91.292 193.148 92.141 M 312.537 94.349 L 310.575 95.784 311.910 97.392 L 313.245 99 315.872 98.985 C 317.318 98.976, 319.175 98.539, 320 98.013 L 321.500 97.057 320.399 95.278 L 319.298 93.500 316.898 93.208 L 314.498 92.915 312.537 94.349 M 442.189 179.684 L 441 181.869 441 191.798 L 441 201.727 443.750 204.504 C 445.262 206.031, 447.996 207.912, 449.825 208.685 L 453.149 210.089 459.383 210.671 L 465.617 211.253 471.239 209.619 L 476.862 207.984 479.931 204.915 L 483 201.846 483 191.614 L 483 181.382 481.532 179.441 L 480.064 177.500 480.017 180.500 L 479.971 183.500 478.716 185.979 L 477.462 188.458 473.481 190.712 L 469.500 192.967 462.500 192.962 L 455.500 192.956 451.331 191.063 L 447.161 189.170 446.077 187.145 C 445.481 186.031, 444.630 183.405, 444.186 181.310 L 443.378 177.500 442.189 179.684 M 343.790 235.202 L 343.500 243.403 326.511 253.202 L 309.522 263 305.011 262.993 L 300.500 262.985 293 258.698 L 285.500 254.410 285.816 264.774 L 286.131 275.137 285.033 276.460 C 284.429 277.188, 276.399 282.108, 267.188 287.392 L 250.442 297 246.479 297 L 242.516 297 226.508 287.842 C 217.704 282.805, 209.713 278.010, 208.750 277.187 L 207 275.690 207 271.421 L 207 267.152 174.250 286.197 C 156.238 296.671, 141.337 305.388, 141.137 305.567 C 140.938 305.746, 142.281 306.808, 144.122 307.928 L 147.469 309.964 148.157 308.105 L 148.844 306.247 151.672 304.269 C 153.227 303.181, 161.025 298.513, 169 293.895 L 183.500 285.500 188 285.500 L 192.500 285.500 208 294.414 C 216.525 299.317, 224.538 304.257, 225.807 305.392 L 228.114 307.456 227.650 309.229 L 227.187 311.002 231.343 308.423 C 233.630 307.004, 237.479 304.928, 239.897 303.810 L 244.294 301.776 248.194 302.299 L 252.094 302.822 258.119 306.411 C 261.432 308.385, 264.336 310, 264.572 310 C 264.807 310, 265 306.648, 265 302.551 L 265 295.102 268.250 292.680 C 270.038 291.348, 278.025 286.487, 286 281.879 L 300.500 273.500 305.049 273.569 L 309.598 273.638 325.049 282.486 C 333.547 287.352, 341.512 292.237, 342.750 293.341 L 345 295.349 345 302.500 L 345 309.651 342.750 311.662 C 341.512 312.767, 333.525 317.683, 325 322.586 L 309.500 331.500 305 331.500 L 300.500 331.500 293.250 327.301 L 286 323.101 286 333.396 L 286 343.690 284.250 345.172 C 282.494 346.659, 259.295 360.293, 253.300 363.362 L 250.099 365 246.318 365 L 242.537 365 225.838 355.437 C 216.654 350.177, 208.675 345.313, 208.107 344.629 L 207.074 343.384 206.787 333.283 L 206.500 323.182 199.690 327.174 L 192.880 331.167 188.427 331.167 L 183.974 331.167 176.487 327.057 L 169 322.948 169 333.406 L 169 343.864 166.250 345.754 C 164.738 346.793, 156.975 351.437, 149 356.072 L 134.500 364.500 129.500 364.474 L 124.500 364.447 108.500 355.125 C 99.700 349.998, 91.938 345.342, 91.250 344.779 L 90 343.755 90 339.468 L 90 335.182 67.750 348.099 C 55.513 355.204, 45.401 361.351, 45.280 361.759 L 45.060 362.500 131.956 412.601 L 218.853 462.701 351.170 385.807 C 423.945 343.515, 483.789 308.595, 484.157 308.206 L 484.826 307.500 415.025 267.250 C 333.885 220.462, 344.149 225.080, 343.790 235.202 M 260.752 235.841 C 257.221 237.972, 257.245 238.060, 262.160 240.867 L 266.304 243.235 265.652 241.536 C 265.293 240.601, 265 238.523, 265 236.918 L 265 234 264.250 234.091 C 263.837 234.142, 262.263 234.929, 260.752 235.841 M 359 252.070 C 357.625 252.638, 349.415 257.217, 340.756 262.245 L 325.012 271.386 324.401 273.311 L 323.791 275.235 325.645 277.040 C 326.665 278.032, 334.638 282.972, 343.363 288.017 L 359.225 297.190 363.940 297.154 L 368.654 297.117 385.348 287.454 L 402.041 277.791 403.006 275.988 L 403.971 274.186 402.235 272.132 L 400.500 270.078 384.639 261.033 L 368.779 251.988 365.139 251.512 L 361.500 251.036 359 252.070 M 418.765 285.985 C 417.261 286.444, 408.819 291.019, 400.006 296.152 L 383.981 305.485 383.386 307.360 L 382.791 309.235 384.645 311.009 C 385.665 311.985, 393.250 316.724, 401.500 321.542 L 416.500 330.301 422 330.689 L 427.500 331.078 444.500 321.142 L 461.500 311.207 461.500 308.378 L 461.500 305.549 444.500 295.849 L 427.500 286.148 424.500 285.650 L 421.500 285.151 418.765 285.985 M 359.212 313.045 C 355.217 314.649, 328.594 330.224, 326.250 332.328 L 324 334.349 324 338.240 L 324 342.131 324.953 343.912 L 325.906 345.692 342.948 355.470 L 359.991 365.248 365.245 364.765 L 370.500 364.283 385.500 355.517 C 393.750 350.696, 401.288 346.063, 402.250 345.221 L 404 343.690 404 339.036 L 404 334.382 402.750 332.817 C 401.416 331.146, 377.184 316.905, 370.500 313.864 L 366.500 312.044 364 312.085 C 362.625 312.108, 360.470 312.540, 359.212 313.045 M 301.044 354.108 C 299.693 354.647, 291.482 359.207, 282.799 364.241 L 267.010 373.393 266.400 375.314 L 265.791 377.235 267.645 379.019 C 268.665 380, 276.660 384.898, 285.412 389.902 L 301.323 399 305.912 398.986 L 310.500 398.972 327.500 389.106 L 344.500 379.241 344.500 376.419 L 344.500 373.597 334.500 367.663 C 329 364.400, 320.776 359.766, 316.226 357.365 L 307.951 353 305.726 353.063 C 304.501 353.098, 302.395 353.568, 301.044 354.108" stroke="none" fill="#4c5e7d" fill-rule="evenodd"/><path d="M 191.269 41.693 C 192.242 41.947, 193.592 41.930, 194.269 41.656 L 195.500 41.158 192.500 41.195 L 189.500 41.232 191.269 41.693 M 197.269 41.693 C 198.242 41.947, 199.592 41.930, 200.269 41.656 L 201.500 41.158 198.500 41.195 L 195.500 41.232 197.269 41.693 M 311.768 42.725 C 313.565 42.947, 316.265 42.943, 317.768 42.715 L 320.500 42.300 314.500 42.310 L 308.500 42.320 311.768 42.725 M 452.929 103.367 C 450.415 104.045, 446.286 105.814, 443.753 107.299 L 439.147 109.998 436.038 113.749 C 434.328 115.812, 431.707 119.975, 430.214 123 L 427.500 128.500 427.500 137.500 L 427.500 146.500 430.212 152 C 431.704 155.025, 434.742 160.395, 436.964 163.934 L 441.003 170.368 443.124 177.434 C 444.291 181.320, 445.604 185.455, 446.043 186.622 L 446.841 188.744 451.236 190.872 L 455.631 193 462.104 193 L 468.576 193 473.023 190.750 L 477.470 188.500 478.621 185 C 479.255 183.075, 480.492 179.025, 481.370 176 L 482.967 170.500 486.932 164 C 489.113 160.425, 492.157 155.250, 493.698 152.500 L 496.498 147.500 496.499 137.500 L 496.500 127.500 493.835 122.336 C 490.600 116.069, 486.827 111.691, 481.472 107.992 L 477.444 105.209 472.040 103.605 L 466.637 102 462.068 102.067 C 459.556 102.105, 455.443 102.690, 452.929 103.367 M 194.750 110.662 C 195.438 110.940, 196.563 110.940, 197.250 110.662 L 198.500 110.158 196 110.158 L 193.500 110.158 194.750 110.662 M 313.768 111.725 C 315.565 111.947, 318.265 111.943, 319.768 111.715 L 322.500 111.300 316.500 111.310 L 310.500 111.320 313.768 111.725 M 249 136.891 C 242.092 140.455, 230.443 147.282, 227.447 149.520 L 224.393 151.802 222.545 155.901 C 221.528 158.155, 220.315 160, 219.848 160 L 219 160 219 158.434 C 219 157.573, 219.520 155.897, 220.156 154.709 L 221.312 152.549 218.906 154.147 L 216.500 155.744 216.500 158.531 L 216.500 161.318 234 171.409 L 251.500 181.500 256.010 181.500 L 260.521 181.500 276.289 172.500 C 284.961 167.550, 292.970 162.671, 294.086 161.658 L 296.115 159.815 295.807 157.772 L 295.500 155.729 293.094 154.139 L 290.688 152.549 291.844 154.709 C 292.480 155.897, 293 157.573, 293 158.434 L 293 160 292.152 160 C 291.685 160, 290.472 158.155, 289.455 155.901 L 287.607 151.802 284.553 149.529 C 279.884 146.053, 262.145 136.075, 259.418 135.390 L 257 134.783 257 157.392 L 257 180 256.019 180 L 255.038 180 254.769 157.833 L 254.500 135.665 253.500 135.375 C 252.950 135.215, 250.925 135.897, 249 136.891 M 373.655 230.750 L 373.191 231.500 376.500 231.500 L 379.809 231.500 379.345 230.750 C 379.091 230.338, 377.810 230, 376.500 230 C 375.190 230, 373.909 230.338, 373.655 230.750 M 375.813 234.683 L 377.125 235.208 377.729 234.604 L 378.333 234 376.417 234.079 L 374.500 234.158 375.813 234.683 M 391 238.393 C 391 238.609, 391.698 239.054, 392.552 239.382 L 394.104 239.977 393.493 238.989 C 392.906 238.038, 391 237.583, 391 238.393 M 397 241.430 C 397 241.705, 397.900 242.411, 399 243 C 400.100 243.589, 401 243.845, 401 243.570 C 401 243.295, 400.100 242.589, 399 242 C 397.900 241.411, 397 241.155, 397 241.430 M 404 245.430 C 404 245.705, 404.900 246.411, 406 247 C 407.100 247.589, 408 247.845, 408 247.570 C 408 247.295, 407.100 246.589, 406 246 C 404.900 245.411, 404 245.155, 404 245.430 M 398 247.430 C 398 247.705, 398.900 248.411, 400 249 C 401.100 249.589, 402 249.845, 402 249.570 C 402 249.295, 401.100 248.589, 400 248 C 398.900 247.411, 398 247.155, 398 247.430 M 411 249.430 C 411 249.705, 411.900 250.411, 413 251 C 414.100 251.589, 415 251.845, 415 251.570 C 415 251.295, 414.100 250.589, 413 250 C 411.900 249.411, 411 249.155, 411 249.430 M 21.200 252.200 C 20.540 252.860, 20 254.140, 20 255.045 L 20 256.690 21.750 258.182 C 22.712 259.003, 30.721 263.798, 39.547 268.837 L 55.594 278 60.135 278 L 64.677 278 80.588 268.902 C 89.340 263.898, 97.347 258.988, 98.381 257.993 L 100.262 256.182 99.612 253.591 L 98.962 251 97.452 251 C 96.621 251, 89.317 254.889, 81.221 259.641 L 66.500 268.283 61.226 268.767 L 55.952 269.252 40.111 260.126 C 23.296 250.439, 23.060 250.340, 21.200 252.200 M 361 251.819 L 358.500 252.152 341.752 261.826 L 325.003 271.500 324.397 273.368 L 323.791 275.235 325.645 277.011 C 326.665 277.988, 334.675 282.885, 343.444 287.894 L 359.388 297 363.848 297 L 368.308 297 374.904 293.327 C 378.532 291.308, 386.364 286.775, 392.309 283.255 L 403.119 276.856 402.809 274.178 L 402.500 271.500 385.687 261.854 L 368.874 252.209 366.187 251.847 C 364.709 251.648, 362.375 251.635, 361 251.819 M 405 251.430 C 405 251.705, 405.900 252.411, 407 253 C 408.100 253.589, 409 253.845, 409 253.570 C 409 253.295, 408.100 252.589, 407 252 C 405.900 251.411, 405 251.155, 405 251.430 M 416 252.430 C 416 252.705, 416.900 253.411, 418 254 C 419.100 254.589, 420 254.845, 420 254.570 C 420 254.295, 419.100 253.589, 418 253 C 416.900 252.411, 416 252.155, 416 252.430 M 423 256.430 C 423 256.705, 423.900 257.411, 425 258 C 426.100 258.589, 427 258.845, 427 258.570 C 427 258.295, 426.100 257.589, 425 257 C 423.900 256.411, 423 256.155, 423 256.430 M 205.951 263.724 L 205.452 267.948 206.299 267.101 L 207.146 266.254 206.798 262.877 L 206.450 259.500 205.951 263.724 M 430.429 262 L 430.429 263.971 431.414 262.986 L 432.400 262 431.414 261.014 L 430.429 260.029 430.429 262 M 424.733 263.124 L 425.967 264.367 426.526 263.807 L 427.086 263.247 425.293 262.564 L 423.500 261.882 424.733 263.124 M 266 304.879 L 266 310.828 272.750 314.572 C 276.462 316.632, 281.300 319.524, 283.500 321 C 285.700 322.476, 290.468 325.330, 294.096 327.342 L 300.692 331 305.148 331 L 309.603 331 326.551 321.151 L 343.500 311.301 343.798 305.151 L 344.095 299 343.248 299 C 342.781 299, 341.972 299.411, 341.450 299.913 C 340.927 300.415, 333.750 304.786, 325.500 309.625 L 310.500 318.424 305 318.424 L 299.500 318.424 284.788 309.768 C 276.696 305.006, 269.159 300.620, 268.038 300.020 L 266 298.930 266 304.879 M 500.172 304.961 L 498.843 307.975 496.172 309.849 C 492.775 312.232, 210.943 475.984, 205.301 478.853 L 201.101 480.989 194.130 482.184 L 187.159 483.380 179.982 482.269 L 172.804 481.158 168.152 478.797 C 161.648 475.495, 21.319 394.389, 16.839 391.341 L 13.178 388.851 11.612 385.676 L 10.046 382.500 10.027 392.500 L 10.007 402.500 11.965 405.710 L 13.922 408.920 17.711 411.365 C 25.888 416.642, 164.825 496.459, 169.913 498.803 L 175.326 501.296 184.413 501.736 L 193.500 502.177 199.500 500.266 L 205.500 498.356 350.500 414.091 C 498.589 328.030, 499.026 327.766, 500.960 323.097 L 502.080 320.392 501.790 311.169 L 501.500 301.946 500.172 304.961 M 149.872 305.750 L 148.500 307.500 150.250 306.128 C 151.213 305.373, 152 304.585, 152 304.378 C 152 303.555, 151.179 304.084, 149.872 305.750 M 224 304.378 C 224 304.585, 224.787 305.373, 225.750 306.128 L 227.500 307.500 226.128 305.750 C 224.821 304.084, 224 303.555, 224 304.378 M 149 310.378 C 149 310.585, 149.787 311.373, 150.750 312.128 L 152.500 313.500 151.128 311.750 C 149.821 310.084, 149 309.555, 149 310.378 M 359.948 312.902 C 357.465 313.699, 328.799 330.149, 326.199 332.269 L 324.899 333.329 325.199 335.870 L 325.500 338.410 342.489 348.205 L 359.478 358 364.395 358 L 369.313 358 384.906 348.923 C 393.483 343.930, 401.335 339.033, 402.355 338.040 L 404.209 336.235 403.590 334.284 L 402.971 332.332 386.044 322.613 L 369.118 312.893 365.809 312.488 L 362.500 312.082 359.948 312.902 M 155 314.430 C 155 314.705, 155.900 315.411, 157 316 C 158.100 316.589, 159 316.845, 159 316.570 C 159 316.295, 158.100 315.589, 157 315 C 155.900 314.411, 155 314.155, 155 314.430 M 162 318.430 C 162 318.705, 162.900 319.411, 164 320 C 165.100 320.589, 166 320.845, 166 320.570 C 166 320.295, 165.100 319.589, 164 319 C 162.900 318.411, 162 318.155, 162 318.430 M 88.951 331.724 L 88.452 335.948 89.299 335.101 L 90.146 334.254 89.798 330.877 L 89.450 327.500 88.951 331.724 M 105.750 414.662 C 106.438 414.940, 107.563 414.940, 108.250 414.662 L 109.500 414.158 107 414.158 L 104.500 414.158 105.750 414.662 M 116.813 414.683 L 118.125 415.208 118.729 414.604 L 119.333 414 117.417 414.079 L 115.500 414.158 116.813 414.683 M 120.083 415.365 C 120.313 415.565, 121.625 416.265, 123 416.920 L 125.500 418.110 123.559 416.555 C 121.966 415.279, 118.711 414.164, 120.083 415.365 M 110.750 416.662 C 111.438 416.940, 112.563 416.940, 113.250 416.662 L 114.500 416.158 112 416.158 L 109.500 416.158 110.750 416.662 M 97.494 419.006 C 96.496 420.110, 95.864 421.190, 96.089 421.408 C 96.315 421.626, 97.309 420.723, 98.297 419.402 C 100.479 416.484, 99.994 416.245, 97.494 419.006 M 122.731 423.920 L 122.112 426.288 123.168 425.232 L 124.225 424.175 123.788 422.863 L 123.351 421.552 122.731 423.920 M 101 425.378 C 101 425.585, 101.787 426.373, 102.750 427.128 L 104.500 428.500 103.128 426.750 C 101.821 425.084, 101 424.555, 101 425.378 M 125.405 428.250 L 123.500 430.500 125.750 428.595 C 127.864 426.805, 128.455 426, 127.655 426 C 127.465 426, 126.453 427.012, 125.405 428.250 M 119 428 L 117.500 428.969 118.691 428.985 C 119.346 428.993, 120.160 428.550, 120.500 428 C 121.267 426.758, 120.921 426.758, 119 428 M 101.441 430.445 C 102.509 431.300, 103.821 432, 104.358 432 C 105.628 432, 105.061 431.538, 102 430.080 L 99.500 428.890 101.441 430.445 M 107.813 429.683 L 109.125 430.208 109.729 429.604 L 110.333 429 108.417 429.079 L 106.500 429.158 107.813 429.683 M 114.813 429.683 L 116.125 430.208 116.729 429.604 L 117.333 429 115.417 429.079 L 113.500 429.158 114.813 429.683 M 109.250 432.716 C 110.763 432.945, 113.237 432.945, 114.750 432.716 L 117.500 432.300 112 432.300 L 106.500 432.300 109.250 432.716" stroke="none" fill="#d0ccca" fill-rule="evenodd"/></svg>